<?xml version="1.0" encoding="UTF-8"?>
<svg version="1.1" xmlns="http://www.w3.org/2000/svg" width="439" height="435">
<path d="M0 0 C144.87 0 289.74 0 439 0 C439 143.55 439 287.1 439 435 C294.13 435 149.26 435 0 435 C0 291.45 0 147.9 0 0 Z " fill="#0E2238" transform="translate(0,0)"/>
<path d="M0 0 C9.44270152 8.25244503 11.70014581 15.87347894 12.859375 28.625 C4.939375 28.625 -2.980625 28.625 -11.140625 28.625 C-11.800625 25.985 -12.460625 23.345 -13.140625 20.625 C-16.86222855 15.99814153 -20.33149272 13.93080427 -26.2265625 13.2890625 C-33.0731588 13.207749 -37.70070485 13.27306388 -43.140625 17.625 C-45.28257448 20.90305107 -45.43848414 23.69243265 -45.453125 27.5625 C-45.46988281 28.58214844 -45.48664063 29.60179687 -45.50390625 30.65234375 C-45.0670947 34.22668341 -44.45653691 35.85230074 -42.140625 38.625 C-34.49496913 43.27655287 -25.72555174 45.46713081 -17.2265625 48.09375 C-5.72762387 51.78062942 4.78410585 56.56068167 10.91796875 67.515625 C15.48350598 77.56417584 15.72446178 92.2243046 12.421875 102.6875 C8.18529522 112.19397171 1.2095758 118.09897932 -8.05078125 122.46875 C-14.94393989 125.04823794 -21.08537967 125.98877792 -28.390625 125.9375 C-29.22255371 125.93258545 -30.05448242 125.9276709 -30.91162109 125.92260742 C-41.45210402 125.72332546 -50.28077898 123.42783303 -59.140625 117.625 C-60.4709375 116.75875 -60.4709375 116.75875 -61.828125 115.875 C-68.77574015 109.11515823 -72.07468569 101.00679501 -74.140625 91.625 C-74.140625 89.975 -74.140625 88.325 -74.140625 86.625 C-66.220625 86.625 -58.300625 86.625 -50.140625 86.625 C-48.820625 90.255 -47.500625 93.885 -46.140625 97.625 C-40.92916868 102.94281258 -37.22310291 103.78749776 -29.953125 103.875 C-24.02567994 103.85868658 -19.32586282 103.65787495 -14.140625 100.625 C-9.84563964 95.5783922 -9.49640379 90.96442374 -9.7734375 84.4296875 C-10.30343871 80.3813804 -11.20319326 78.49249289 -14.140625 75.625 C-20.2296166 71.557455 -27.1528149 69.59114523 -34.09667969 67.49755859 C-47.38264622 63.47160322 -58.59127098 58.79833335 -66.140625 46.625 C-70.6795581 38.04357961 -71.60024138 28.05565275 -69.45703125 18.61328125 C-65.72636531 7.51416308 -59.08914099 0.16242632 -48.703125 -5.125 C-32.92886155 -10.65982928 -13.83488787 -10.40217133 0 0 Z " fill="#DDFBFB" transform="translate(299.140625,158.375)"/>
<path d="M0 0 C144.87 0 289.74 0 439 0 C439 143.55 439 287.1 439 435 C294.13 435 149.26 435 0 435 C0 291.45 0 147.9 0 0 Z M19 3 C19 4.98 19 6.96 19 9 C17.02 9 15.04 9 13 9 C13 10.98 13 12.96 13 15 C11.02 15 9.04 15 7 15 C6.67 18.63 6.34 22.26 6 26 C4.35 26 2.7 26 1 26 C1 152.06 1 278.12 1 408 C2.98 408 4.96 408 7 408 C7 411.96 7 415.92 7 420 C8.98 420 10.96 420 13 420 C13 421.65 13 423.3 13 425 C16.63 425.33 20.26 425.66 24 426 C24.33 427.65 24.66 429.3 25 431 C154.36 431 283.72 431 417 431 C417 429.02 417 427.04 417 425 C418.98 425 420.96 425 423 425 C423.33 423.35 423.66 421.7 424 420 C425.65 419.67 427.3 419.34 429 419 C429.33 415.37 429.66 411.74 430 408 C431.65 408 433.3 408 435 408 C435 281.94 435 155.88 435 26 C433.02 26 431.04 26 429 26 C429 22.37 429 18.74 429 15 C427.35 14.67 425.7 14.34 424 14 C423.67 12.35 423.34 10.7 423 9 C421.02 9 419.04 9 417 9 C417 7.02 417 5.04 417 3 C285.66 3 154.32 3 19 3 Z " fill="#506F83" transform="translate(0,0)"/>
<path d="M0 0 C4.58232735 3.10472468 7.77888715 6.03064527 10.72265625 10.75390625 C11.30402344 11.66914063 11.88539063 12.584375 12.484375 13.52734375 C16.34215868 20.62100141 16.21144089 26.44609729 16.03515625 34.37890625 C8.44515625 34.37890625 0.85515625 34.37890625 -6.96484375 34.37890625 C-7.62484375 31.40890625 -8.28484375 28.43890625 -8.96484375 25.37890625 C-11.28178847 20.65590354 -13.8957731 18.1795051 -18.6171875 16.0703125 C-24.30230152 14.39599439 -29.86625793 14.61578413 -35.40234375 16.62890625 C-39.86540043 19.6768474 -42.27233707 22.21940511 -43.96484375 27.37890625 C-44.28559093 30.49318559 -44.28559093 30.49318559 -44.27124023 33.87817383 C-44.28722763 35.17334427 -44.30321503 36.46851471 -44.31968689 37.80293274 C-44.32606466 39.20976363 -44.33145706 40.61659929 -44.3359375 42.0234375 C-44.34491293 43.47686349 -44.35403493 44.93028858 -44.36329651 46.38371277 C-44.37975986 49.42746214 -44.38748161 52.47110188 -44.39038086 55.51489258 C-44.3957588 59.39868131 -44.43342408 63.28142707 -44.47912502 67.16492176 C-44.50899698 70.16684144 -44.5161066 73.16851314 -44.51710701 76.17056847 C-44.52129011 77.60141458 -44.53364723 79.03226275 -44.55462456 80.4629612 C-44.66521454 88.65825829 -44.63377496 95.07768051 -38.96484375 101.37890625 C-35.05421983 105.28953017 -31.80461544 105.66470819 -26.46484375 105.81640625 C-20.2178886 105.60319959 -16.44304896 104.64469387 -11.77734375 100.37890625 C-9.13587808 96.31600235 -9.13587808 96.31600235 -6.96484375 86.37890625 C0.62515625 86.37890625 8.21515625 86.37890625 16.03515625 86.37890625 C16.03515625 97.64384177 14.26701217 108.04466406 6.03515625 116.37890625 C-6.09469411 126.43115248 -18.47296535 128.24223074 -33.96484375 127.37890625 C-44.51030793 125.7937282 -53.68350313 120.90288016 -60.4296875 112.59375 C-65.82608969 104.80810105 -68.06552332 97.90389414 -68.1418457 88.46826172 C-68.1484169 87.7926973 -68.1549881 87.11713287 -68.16175842 86.4210968 C-68.18138797 84.1960944 -68.19313305 81.9711593 -68.203125 79.74609375 C-68.20720053 78.98109684 -68.21127605 78.21609993 -68.21547508 77.4279213 C-68.23629548 73.37577846 -68.25061249 69.32366904 -68.26000977 65.27148438 C-68.2710439 61.11242715 -68.3054202 56.95390937 -68.34518147 52.79504204 C-68.37148714 49.57428072 -68.37971404 46.35364506 -68.38329124 43.1327858 C-68.38812413 41.60116065 -68.39964252 40.06953986 -68.41832924 38.53802109 C-68.5501364 27.01604578 -67.41975485 16.55780875 -59.8515625 7.29296875 C-53.22347756 0.56882461 -46.16782012 -3.63613806 -36.96484375 -5.62109375 C-36.34480469 -5.80285156 -35.72476563 -5.98460937 -35.0859375 -6.171875 C-23.11954516 -8.70619382 -10.42690387 -6.08738318 0 0 Z " fill="#DFFCFC" transform="translate(191.96484375,156.62109375)"/>
<path d="M0 0 C0 7.92 0 15.84 0 24 C-3.3 25.32 -6.6 26.64 -10 28 C-11.76283942 28.85857194 -13.51073952 29.75016654 -15.2265625 30.69921875 C-16.10594482 31.18229492 -16.98532715 31.66537109 -17.89135742 32.16308594 C-18.79345947 32.66614258 -19.69556152 33.16919922 -20.625 33.6875 C-21.57415283 34.20989258 -22.52330566 34.73228516 -23.5012207 35.27050781 C-27.98006057 37.74153989 -32.44016061 40.24282357 -36.87890625 42.78515625 C-37.61222168 43.20385986 -38.34553711 43.62256348 -39.10107422 44.05395508 C-40.45926196 44.83253707 -41.8139693 45.61723262 -43.16455078 46.40893555 C-47.67059179 49 -47.67059179 49 -51 49 C-51 49.66 -51 50.32 -51 51 C-50.14873535 51.25885986 -49.2974707 51.51771973 -48.42041016 51.78442383 C-44.82423486 53.062465 -41.63717658 54.64800747 -38.2734375 56.44921875 C-37.64450592 56.78492386 -37.01557434 57.12062897 -36.36758423 57.46650696 C-35.04025555 58.17622017 -33.7141318 58.88819102 -32.38916016 59.60229492 C-30.40415099 60.6717938 -28.41536357 61.73395945 -26.42578125 62.79492188 C-19.31372286 66.6007186 -12.29878901 70.51823167 -5.37744141 74.66333008 C-2.97183215 76.11454771 -2.97183215 76.11454771 0 77 C0 84.59 0 92.18 0 100 C-4.10108803 99.17978239 -5.93607383 98.68779559 -9.32421875 96.69140625 C-10.17161621 96.20027344 -11.01901367 95.70914063 -11.89208984 95.203125 C-12.8145752 94.66171875 -13.73706055 94.1203125 -14.6875 93.5625 C-26.40121239 86.80600132 -38.31621803 80.47329652 -50.28393555 74.18188477 C-50.99230057 73.80922989 -51.70066559 73.43657501 -52.43049622 73.05262756 C-53.74772551 72.36013044 -55.06553031 71.66872617 -56.38407898 70.97874451 C-61.30423503 68.39545938 -66.13770346 65.70127585 -71 63 C-71 54.75 -71 46.5 -71 38 C-51.88970488 27.21498196 -32.73075998 16.51716824 -13.4375 6.0625 C-12.31939941 5.45317627 -11.20129883 4.84385254 -10.04931641 4.21606445 C-9.02112793 3.66136475 -7.99293945 3.10666504 -6.93359375 2.53515625 C-6.02665771 2.044104 -5.11972168 1.55305176 -4.18530273 1.04711914 C-2 0 -2 0 0 0 Z " fill="#DCF9FA" transform="translate(101,167)"/>
<path d="M0 0 C17.6375148 8.57897246 34.84333639 18.00315765 52 27.5 C52.67401855 27.87237793 53.34803711 28.24475586 54.04248047 28.62841797 C55.34000868 29.35113697 56.62903622 30.08934872 57.90869141 30.84326172 C60.06231681 32.07937355 60.06231681 32.07937355 62.69677734 33.16064453 C65.59189717 34.53890772 67.72617641 35.73064146 70 38 C71.2234901 42.34767884 70.95310758 46.4026413 70.625 50.875 C70.57988281 52.0403125 70.53476562 53.205625 70.48828125 54.40625 C70.37066384 57.2761148 70.20665828 60.13539824 70 63 C69.1248877 63.4626123 68.24977539 63.92522461 67.34814453 64.40185547 C50.65528473 73.23008733 34.00066922 82.09982198 17.55371094 91.38037109 C15.03766733 92.79858325 12.51888359 94.21183993 10 95.625 C9.22672363 96.06384521 8.45344727 96.50269043 7.65673828 96.95483398 C2.22548519 100 2.22548519 100 0 100 C0 92.41 0 84.82 0 77 C4.640625 74.463125 4.640625 74.463125 9.375 71.875 C10.42244385 71.30201172 11.4698877 70.72902344 12.54907227 70.13867188 C18.08863112 67.11440059 23.64187637 64.11833238 29.21484375 61.15625 C30.40906959 60.51979282 31.60324322 59.88323766 32.79736328 59.24658203 C35.12267696 58.0085035 37.45044706 56.7750265 39.78076172 55.54638672 C40.83924316 54.98193848 41.89772461 54.41749023 42.98828125 53.8359375 C43.93227783 53.33626465 44.87627441 52.8365918 45.84887695 52.32177734 C48.12934071 51.18126297 48.12934071 51.18126297 49 49 C48.27578857 48.72091797 47.55157715 48.44183594 46.80541992 48.15429688 C44.15597461 47.06417613 41.6531283 45.85426834 39.11328125 44.53125 C38.18290039 44.0470459 37.25251953 43.5628418 36.29394531 43.06396484 C35.31006836 42.54785645 34.32619141 42.03174805 33.3125 41.5 C31.79221191 40.70456787 31.79221191 40.70456787 30.24121094 39.89306641 C7.10691208 27.73794139 7.10691208 27.73794139 0 23 C-0.34057617 20.66162109 -0.34057617 20.66162109 -0.29296875 17.7734375 C-0.28330078 16.7421875 -0.27363281 15.7109375 -0.26367188 14.6484375 C-0.23853516 13.56820312 -0.21339844 12.48796875 -0.1875 11.375 C-0.17396484 10.28703125 -0.16042969 9.1990625 -0.14648438 8.078125 C-0.11104754 5.38492591 -0.06164331 2.69270626 0 0 Z " fill="#DEFBFC" transform="translate(336,167)"/>
<path d="M0 0 C10.89 0 21.78 0 33 0 C33 0.66 33 1.32 33 2 C34.32 2.33 35.64 2.66 37 3 C31.06 3 25.12 3 19 3 C19 4.98 19 6.96 19 9 C17.02 9 15.04 9 13 9 C13 10.98 13 12.96 13 15 C11.02 15 9.04 15 7 15 C6.67 18.63 6.34 22.26 6 26 C4.35 26 2.7 26 1 26 C1 152.06 1 278.12 1 408 C2.98 408 4.96 408 7 408 C7 411.96 7 415.92 7 420 C8.98 420 10.96 420 13 420 C13 421.65 13 423.3 13 425 C16.63 425.33 20.26 425.66 24 426 C24.33 427.65 24.66 429.3 25 431 C128.95 431 232.9 431 340 431 C340 431.33 340 431.66 340 432 C251.56 432 163.12 432 72 432 C71.67 432.99 71.34 433.98 71 435 C47.57 435 24.14 435 0 435 C0 291.45 0 147.9 0 0 Z " fill="#455A6B" transform="translate(0,0)"/>
<path d="M0 0 C123.09 0 246.18 0 373 0 C373.33 0.99 373.66 1.98 374 3 C326.93227506 3.0228728 279.86455071 3.0405015 232.79682131 3.05106533 C227.24410482 3.05231608 221.69138835 3.0536104 216.13867188 3.05493164 C214.48045454 3.05532511 214.48045454 3.05532511 212.78873786 3.05572652 C194.87269362 3.06008165 176.95665257 3.06796834 159.04061022 3.0771528 C140.66658948 3.0864937 122.29257041 3.09205654 103.91854739 3.09408849 C92.57447857 3.09546281 81.23041879 3.09980849 69.88635275 3.10791647 C62.11462841 3.1131893 54.34290876 3.11480306 46.57118276 3.11350138 C42.08269041 3.11285885 37.59421389 3.11386602 33.10572433 3.11920547 C29.00003497 3.12405407 24.89437216 3.12432897 20.7886816 3.12089889 C19.30005985 3.12047465 17.81143648 3.12175808 16.32281795 3.12488318 C14.30542197 3.12887353 12.28801599 3.1261452 10.27061844 3.12304783 C9.14816514 3.12342755 8.02571185 3.12380727 6.86924481 3.1241985 C4.39798261 3.01722713 2.35362537 2.72055344 0 2 C0 1.34 0 0.68 0 0 Z " fill="#4C6A80" transform="translate(33,0)"/>
<path d="M0 0 C6.12374605 -0.02862417 12.24749219 -0.04981791 18.37128387 -0.06587905 C22.03442279 -0.0757667 25.6974727 -0.08911565 29.36056106 -0.11102638 C33.38656697 -0.13501492 37.41245867 -0.14349638 41.43852978 -0.1505762 C42.64352206 -0.16020232 43.84851434 -0.16982843 45.09002154 -0.17974624 C46.73123778 -0.17892909 46.73123778 -0.17892909 48.40560989 -0.17809543 C49.35991585 -0.18187686 50.3142218 -0.18565829 51.29744612 -0.1895543 C53.56839733 0.05242673 53.56839733 0.05242673 55.56839733 2.05242673 C55.56839733 2.71242673 55.56839733 3.37242673 55.56839733 4.05242673 C-55.31160267 4.05242673 -166.19160267 4.05242673 -280.43160267 4.05242673 C-280.10160267 3.06242673 -279.77160267 2.07242673 -279.43160267 1.05242673 C-246.3964076 0.92355187 -213.36120757 0.79604154 -180.32600065 0.67024446 C-176.38406912 0.65523258 -172.44213764 0.64020995 -168.50020618 0.62518063 C-167.7157716 0.62219002 -166.93133702 0.6191994 -166.1231317 0.61611816 C-153.58964676 0.56830954 -141.05616533 0.51963838 -128.52268507 0.47062132 C-115.5645225 0.4199636 -102.60635638 0.3702955 -89.64818681 0.32145968 C-82.41097643 0.2941585 -75.17376813 0.26645767 -67.93656368 0.23762265 C-53.18865592 0.17907862 -38.44076922 0.12699763 -23.6927904 0.08885661 C-15.79513881 0.06768296 -7.8975904 0.03756757 0 0 Z " fill="#4D6A7E" transform="translate(351.43160266801715,430.947573274374)"/>
<path d="M0 0 C0.99 0.33 1.98 0.66 3 1 C3 58.42 3 115.84 3 175 C2.34 175 1.68 175 1 175 C0.67 175.99 0.34 176.98 0 178 C0 119.26 0 60.52 0 0 Z " fill="#507085" transform="translate(436,58)"/>
<path d="M0 0 C10.89 0 21.78 0 33 0 C33 15.18 33 30.36 33 46 C31.68 45.67 30.36 45.34 29 45 C29 38.73 29 32.46 29 26 C27.02 26 25.04 26 23 26 C23 22.37 23 18.74 23 15 C21.35 15 19.7 15 18 15 C17 14 17 14 16.9375 11.4375 C16.958125 10.633125 16.97875 9.82875 17 9 C15.02 9 13.04 9 11 9 C11 7.02 11 5.04 11 3 C7.7 3 4.4 3 1 3 C0.67 2.01 0.34 1.02 0 0 Z " fill="#364850" transform="translate(406,0)"/>
<path d="M0 0 C0.66 0 1.32 0 2 0 C2 11.55 2 23.1 2 35 C-8.56 35 -19.12 35 -30 35 C-30.66 33.68 -31.32 32.36 -32 31 C-28.04 31 -24.08 31 -20 31 C-20 29.02 -20 27.04 -20 25 C-18.02 25 -16.04 25 -14 25 C-14.020625 24.195625 -14.04125 23.39125 -14.0625 22.5625 C-14 20 -14 20 -13 19 C-11.35 19 -9.7 19 -8 19 C-7.67 15.37 -7.34 11.74 -7 8 C-5.35 8 -3.7 8 -2 8 C-2 6.02 -2 4.04 -2 2 C-1.34 2 -0.68 2 0 2 C0 1.34 0 0.68 0 0 Z " fill="#314049" transform="translate(437,400)"/>
<path d="M0 0 C1.485 0.99 1.485 0.99 3 2 C3.29296875 5.0390625 3.29296875 5.0390625 3.1875 8.625 C3.16042969 9.81351563 3.13335937 11.00203125 3.10546875 12.2265625 C3.07066406 13.14179687 3.03585937 14.05703125 3 15 C2.34 15 1.68 15 1 15 C1 122.25 1 229.5 1 340 C1.66 339.67 2.32 339.34 3 339 C3 344.61 3 350.22 3 356 C2.34 356 1.68 356 1 356 C1 356.66 1 357.32 1 358 C0.34 358 -0.32 358 -1 358 C-1.02286438 312.53733295 -1.04049721 267.0746665 -1.05106533 221.61199484 C-1.05231611 216.25068861 -1.05361042 210.88938239 -1.05493164 205.52807617 C-1.05532511 203.92699543 -1.05532511 203.92699543 -1.05572652 202.29356962 C-1.06008365 184.98658537 -1.06797143 167.67960442 -1.0771528 150.37262214 C-1.08648814 132.6280328 -1.09205536 114.88344519 -1.09408849 97.13885349 C-1.09546397 86.18017962 -1.09981588 75.22151508 -1.10791647 64.26284408 C-1.11318246 56.75885697 -1.11480463 49.25487473 -1.11350138 41.75088591 C-1.11285777 37.41466004 -1.1138781 33.07845055 -1.11920547 28.74222755 C-1.12403912 24.77917743 -1.12433888 20.81615485 -1.12089889 16.85310351 C-1.12047317 15.41298702 -1.12176919 13.97286887 -1.12488318 12.53275568 C-1.12884671 10.58799077 -1.12615656 8.64321559 -1.12304783 6.69844913 C-1.12342755 5.61434759 -1.12380727 4.53024605 -1.1241985 3.41329294 C-1 1 -1 1 0 0 Z " fill="#415A6E" transform="translate(436,44)"/>
<path d="M0 0 C102.3 0 204.6 0 310 0 C310 0.33 310 0.66 310 1 C221.56 1 133.12 1 42 1 C41.67 1.99 41.34 2.98 41 4 C27.14 4 13.28 4 -1 4 C-0.67 2.68 -0.34 1.36 0 0 Z " fill="#435C72" transform="translate(30,431)"/>
<path d="M0 0 C0.33 0 0.66 0 1 0 C1 3.96 1 7.92 1 12 C2.98 12 4.96 12 7 12 C7 15.96 7 19.92 7 24 C8.98 24 10.96 24 13 24 C13 25.65 13 27.3 13 29 C16.63 29.33 20.26 29.66 24 30 C24.33 31.65 24.66 33.3 25 35 C26.65 35 28.3 35 30 35 C29.67 36.32 29.34 37.64 29 39 C19.43 39 9.86 39 0 39 C0 26.13 0 13.26 0 0 Z " fill="#293943" transform="translate(0,396)"/>
<path d="M0 0 C8.17962388 -0.04628728 16.35919327 -0.08185072 24.53891563 -0.10362434 C28.33686312 -0.11407321 32.13472118 -0.12825236 35.93261719 -0.15087891 C39.59601346 -0.17256821 43.25932357 -0.18456031 46.92277908 -0.18975449 C48.32226544 -0.19345731 49.72174695 -0.20068777 51.12119675 -0.21146011 C53.07733331 -0.22592225 55.03355609 -0.22681647 56.98974609 -0.22705078 C58.66186661 -0.23371262 58.66186661 -0.23371262 60.36776733 -0.24050903 C63 0 63 0 65 2 C65 2.66 65 3.32 65 4 C50.15 4 35.3 4 20 4 C20.33 3.34 20.66 2.68 21 2 C14.07 1.67 7.14 1.34 0 1 C0 0.67 0 0.34 0 0 Z " fill="#4D697D" transform="translate(342,431)"/>
<path d="M0 0 C0.99386719 0.00902344 1.98773438 0.01804688 3.01171875 0.02734375 C4.15060547 0.04474609 4.15060547 0.04474609 5.3125 0.0625 C4.714375 0.35125 4.11625 0.64 3.5 0.9375 C1.11922208 2.10992026 1.11922208 2.10992026 -1.6875 4.0625 C-1.6875 3.4025 -1.6875 2.7425 -1.6875 2.0625 C-7.54200859 3.23340172 -11.12048821 5.17437273 -14.6875 10.0625 C-15.73260361 12.68352997 -15.73260361 12.68352997 -15.6875 15.0625 C-15.3575 15.7225 -15.0275 16.3825 -14.6875 17.0625 C-15.3475 17.0625 -16.0075 17.0625 -16.6875 17.0625 C-16.501875 17.578125 -16.31625 18.09375 -16.125 18.625 C-15.6875 21.0625 -15.6875 21.0625 -16.15234375 24.0078125 C-16.93854595 29.11313398 -16.83280435 34.22107996 -16.8125 39.375 C-16.81636719 40.37595703 -16.82023438 41.37691406 -16.82421875 42.40820312 C-16.82292969 43.36275391 -16.82164062 44.31730469 -16.8203125 45.30078125 C-16.81918457 46.16743408 -16.81805664 47.03408691 -16.81689453 47.92700195 C-16.82442251 50.11557065 -16.82442251 50.11557065 -15.6875 52.0625 C-15.77741168 53.73311696 -15.93376756 55.40043042 -16.125 57.0625 C-16.7814788 63.56760814 -17.20389115 69.96415313 -16.125 76.4375 C-15.68842261 79.05696431 -15.82819088 80.58005143 -16.6875 83.0625 C-18.84516935 79.55233029 -18.94575218 76.72393268 -18.9621582 72.64501953 C-18.97169022 71.34331818 -18.98122223 70.04161682 -18.99104309 68.70046997 C-18.99078163 67.28208387 -18.9898444 65.86369776 -18.98828125 64.4453125 C-18.99217023 62.98566567 -18.99650532 61.52601997 -19.00126648 60.06637573 C-19.00872294 57.00824311 -19.00844197 53.95022595 -19.00317383 50.89208984 C-18.99738508 46.98255349 -19.01429812 43.07349181 -19.0375185 39.16403389 C-19.05228746 36.14933532 -19.05312318 33.13475016 -19.05000877 30.12002182 C-19.05052057 28.6791884 -19.05573168 27.23834839 -19.06582069 25.7975502 C-19.0782254 23.77799375 -19.06943176 21.75834118 -19.05981445 19.73876953 C-19.06044388 18.59167511 -19.0610733 17.44458069 -19.0617218 16.26272583 C-18.44337031 10.97478052 -16.29673873 7.09326221 -12.1875 3.75 C-11.5996875 3.25886719 -11.011875 2.76773438 -10.40625 2.26171875 C-7.01587032 -0.10384162 -3.99455447 -0.04699476 0 0 Z " fill="#2C5864" transform="translate(165.6875,170.9375)"/>
<path d="M0 0 C1.17521526 3.68672136 1.08315633 7.12220332 1.02172852 10.97167969 C1.01212097 11.6647673 1.00251343 12.35785492 0.99261475 13.07194519 C0.95971996 15.35536158 0.91935174 17.63858092 0.87890625 19.921875 C0.85459581 21.50798861 0.83075272 23.09410944 0.80735779 24.68023682 C0.74460874 28.84942879 0.67551622 33.0184924 0.60510254 37.18756104 C0.53433607 41.44399178 0.46956889 45.70051333 0.40429688 49.95703125 C0.27540289 58.30478808 0.13980733 66.65241884 0 75 C-2.60547485 72.39452515 -2.30023823 71.19367398 -2.4140625 67.55859375 C-2.45297607 66.4298584 -2.49188965 65.30112305 -2.53198242 64.13818359 C-2.56267822 62.91695801 -2.59337402 61.69573242 -2.625 60.4375 C-2.66149658 59.18275879 -2.69799316 57.92801758 -2.7355957 56.63525391 C-2.83976034 52.7570119 -2.92415711 48.87889311 -3 45 C-3.02336426 43.85128418 -3.04672852 42.70256836 -3.07080078 41.51904297 C-3.67178801 7.34357602 -3.67178801 7.34357602 0 0 Z " fill="#37616C" transform="translate(124,177)"/>
<path d="M0 0 C1.485 0.99 1.485 0.99 3 2 C3.29296875 5.0390625 3.29296875 5.0390625 3.1875 8.625 C3.16042969 9.81351563 3.13335937 11.00203125 3.10546875 12.2265625 C3.07066406 13.14179687 3.03585937 14.05703125 3 15 C2.34 15 1.68 15 1 15 C0.67 46.68 0.34 78.36 0 111 C-0.33 111 -0.66 111 -1 111 C-1.0233302 96.67505574 -1.04091336 82.35011441 -1.05181217 68.02515507 C-1.05704174 61.3742647 -1.06414072 54.72339214 -1.07543945 48.07250977 C-1.08626571 41.65997123 -1.09227628 35.24744496 -1.09487724 28.83489799 C-1.09673197 26.38235722 -1.10035347 23.92981715 -1.10573006 21.47728157 C-1.11293702 18.05523323 -1.11399109 14.63323629 -1.11352539 11.21118164 C-1.11712067 10.18619568 -1.12071594 9.16120972 -1.12442017 8.10516357 C-1.1230455 7.17823196 -1.12167084 6.25130035 -1.12025452 5.29627991 C-1.12117631 4.48602387 -1.1220981 3.67576784 -1.12304783 2.8409586 C-1 1 -1 1 0 0 Z " fill="#486278" transform="translate(436,44)"/>
<path d="M0 0 C0.33 0 0.66 0 1 0 C1 3.96 1 7.92 1 12 C2.98 12 4.96 12 7 12 C7 15.96 7 19.92 7 24 C5.35 24 3.7 24 2 24 C-0.07422976 15.96235969 -0.2144997 8.27015524 0 0 Z " fill="#304559" transform="translate(0,396)"/>
<path d="M0 0 C8.17962388 -0.04628728 16.35919327 -0.08185072 24.53891563 -0.10362434 C28.33686312 -0.11407321 32.13472118 -0.12825236 35.93261719 -0.15087891 C39.59601346 -0.17256821 43.25932357 -0.18456031 46.92277908 -0.18975449 C48.32226544 -0.19345731 49.72174695 -0.20068777 51.12119675 -0.21146011 C53.07733331 -0.22592225 55.03355609 -0.22681647 56.98974609 -0.22705078 C58.66186661 -0.23371262 58.66186661 -0.23371262 60.36776733 -0.24050903 C63 0 63 0 65 2 C65 2.66 65 3.32 65 4 C63.35 4 61.7 4 60 4 C59.505 3.01 59.505 3.01 59 2 C29.795 1.505 29.795 1.505 0 1 C0 0.67 0 0.34 0 0 Z " fill="#425B71" transform="translate(342,431)"/>
<path d="M0 0 C1.32 0.33 2.64 0.66 4 1 C3.67 1.99 3.34 2.98 3 4 C3.99 4 4.98 4 6 4 C8.38858824 12.36005884 8.190218 20.38735156 8 29 C7.67 28.34 7.34 27.68 7 27 C5.38931641 27.12568359 5.38931641 27.12568359 3.74609375 27.25390625 C2.30992378 27.3571603 0.87372419 27.46000294 -0.5625 27.5625 C-1.26697266 27.61857422 -1.97144531 27.67464844 -2.69726562 27.73242188 C-7.31438431 28.05157754 -11.4408752 27.80878035 -16 27 C-16 26.67 -16 26.34 -16 26 C-8.41 26 -0.82 26 7 26 C6.6300676 17.95397032 5.67701516 12.12149181 2 5 C1.32165413 3.33805262 0.64800425 1.67401097 0 0 Z " fill="#274C58" transform="translate(201,165)"/>
<path d="M0 0 C11.55 0 23.1 0 35 0 C35 0.33 35 0.66 35 1 C22.625 1.495 22.625 1.495 10 2 C10 2.66 10 3.32 10 4 C6.37 4 2.74 4 -1 4 C-0.67 2.68 -0.34 1.36 0 0 Z " fill="#3A5265" transform="translate(30,431)"/>
<path d="M0 0 C1.485 0.99 1.485 0.99 3 2 C3.22107787 4.7885289 3.28107535 7.34653181 3.1875 10.125 C3.17396484 10.87910156 3.16042969 11.63320313 3.14648438 12.41015625 C3.11109985 14.27374127 3.05729167 16.13695978 3 18 C1.68 17.67 0.36 17.34 -1 17 C-1.02684679 14.35409986 -1.04676357 11.70846904 -1.0625 9.0625 C-1.07087891 8.30775391 -1.07925781 7.55300781 -1.08789062 6.77539062 C-1.09652441 4.85005687 -1.05224333 2.92464419 -1 1 C-0.67 0.67 -0.34 0.34 0 0 Z " fill="#3B5265" transform="translate(436,28)"/>
<path d="M0 0 C-2.46584929 1.28224163 -4.79511098 2.2746747 -7.4375 3.1875 C-11.77314065 5.39335226 -13.98806889 7.58048606 -16 12 C-16.64501861 15.00530895 -16.92342832 17.93017185 -17 21 C-17.33 21 -17.66 21 -18 21 C-18.08160748 19.10489301 -18.13946459 17.20875496 -18.1875 15.3125 C-18.22230469 14.25675781 -18.25710937 13.20101562 -18.29296875 12.11328125 C-17.96001055 8.57504548 -17.11838841 6.82451788 -15 4 C-9.73960993 0.18363858 -6.43426415 -0.45152731 0 0 Z " fill="#295965" transform="translate(271,171)"/>
<path d="M0 0 C2.31 0.33 4.62 0.66 7 1 C5.79272673 4.62181982 4.40581312 6.29709344 1 8 C0.67 8.99 0.34 9.98 0 11 C-2 10 -2 10 -4 7 C-3.625 4.8125 -3.625 4.8125 -3 3 C-2.34 3 -1.68 3 -1 3 C-0.67 2.01 -0.34 1.02 0 0 Z " fill="#0A1931" transform="translate(291,51)"/>
<path d="M0 0 C1.65 0 3.3 0 5 0 C5.45375 0.928125 5.9075 1.85625 6.375 2.8125 C7.9421633 6.03921389 7.9421633 6.03921389 10 9 C10 10.32 10 11.64 10 13 C8.68 13 7.36 13 6 13 C6 10.69 6 8.38 6 6 C4.02 6 2.04 6 0 6 C0 4.02 0 2.04 0 0 Z " fill="#425B6E" transform="translate(424,9)"/>
<path d="M0 0 C1.32 0 2.64 0 4 0 C4.33 3.3 4.66 6.6 5 10 C3.35 10.33 1.7 10.66 0 11 C0 7.37 0 3.74 0 0 Z " fill="#354B60" transform="translate(430,408)"/>
<path d="M0 0 C8.48815684 2.32959633 16.77902213 4.8458289 25 8 C24.01 8.66 23.02 9.32 22 10 C22 9.34 22 8.68 22 8 C21.01 8.33 20.02 8.66 19 9 C19 8.34 19 7.68 19 7 C17.68 7 16.36 7 15 7 C14.34 7.66 13.68 8.32 13 9 C12.525625 8.401875 12.05125 7.80375 11.5625 7.1875 C8.07316152 4.20879642 4.3635189 3.2307361 0 2 C0 1.34 0 0.68 0 0 Z " fill="#275764" transform="translate(255,222)"/>
<path d="M0 0 C2.25 0.875 2.25 0.875 4 2 C3.67 3.32 3.34 4.64 3 6 C0.525 5.01 0.525 5.01 -2 4 C-2.33 11.26 -2.66 18.52 -3 26 C-3.33 26 -3.66 26 -4 26 C-4 18.08 -4 10.16 -4 2 C-2.68 1.34 -1.36 0.68 0 0 Z " fill="#436370" transform="translate(339,164)"/>
<path d="M0 0 C0.33 0 0.66 0 1 0 C1 5.61 1 11.22 1 17 C0.34 17 -0.32 17 -1 17 C-1.33 17.66 -1.66 18.32 -2 19 C-2.19818283 12.29481414 -2.30844801 6.34823202 0 0 Z " fill="#456173" transform="translate(438,383)"/>
<path d="M0 0 C2.97 0.495 2.97 0.495 6 1 C6 2.65 6 4.3 6 6 C4.35 6 2.7 6 1 6 C1 10.62 1 15.24 1 20 C0.67 20 0.34 20 0 20 C0 13.4 0 6.8 0 0 Z " fill="#374C60" transform="translate(0,20)"/>
<path d="M0 0 C4.95 0 9.9 0 15 0 C14.67 0.99 14.34 1.98 14 3 C9.05 3 4.1 3 -1 3 C-0.67 2.01 -0.34 1.02 0 0 Z " fill="#4A6579" transform="translate(388,432)"/>
<path d="M0 0 C0.78503906 0.22816406 1.57007813 0.45632813 2.37890625 0.69140625 C9.55984187 2.65625121 14.15319602 3.30994702 21.3125 1.375 C23 1 23 1 25 2 C19.20084258 5.97656509 12.82829293 5.81351018 6 5 C3.36311912 3.94903491 2.09396657 2.97431134 0 1 C0 0.67 0 0.34 0 0 Z " fill="#2F5D67" transform="translate(153,258)"/>
<path d="M0 0 C5.94 0 11.88 0 18 0 C16.68 1.32 15.36 2.64 14 4 C13.01 3.67 12.02 3.34 11 3 C11 2.34 11 1.68 11 1 C6.2482602 1.43197635 4.07999946 2.32769295 1 6 C0.4465236 3.92446352 0 2.15634036 0 0 Z " fill="#08192F" transform="translate(293,3)"/>
<path d="M0 0 C0.66 0 1.32 0 2 0 C2 4.62 2 9.24 2 14 C1.67 12.68 1.34 11.36 1 10 C-0.32 10 -1.64 10 -3 10 C-2.25 3.375 -2.25 3.375 0 0 Z " fill="#07182D" transform="translate(433,148)"/>
<path d="M0 0 C0.66 0.33 1.32 0.66 2 1 C-1.60452116 4.18539079 -4.42112319 6.39120545 -9 8 C-9.99 8.66 -10.98 9.32 -12 10 C-14.1875 10.625 -14.1875 10.625 -16 11 C-16.33 10.34 -16.66 9.68 -17 9 C-14.21526125 7.46621464 -11.42121662 5.9502442 -8.625 4.4375 C-7.8309375 3.99986328 -7.036875 3.56222656 -6.21875 3.11132812 C-5.45820313 2.70205078 -4.69765625 2.29277344 -3.9140625 1.87109375 C-2.8614624 1.29766235 -2.8614624 1.29766235 -1.78759766 0.71264648 C-1.19769043 0.47747314 -0.6077832 0.2422998 0 0 Z " fill="#224A57" transform="translate(382,242)"/>
<path d="M0 0 C0.66 0 1.32 0 2 0 C2.66 0.99 3.32 1.98 4 3 C6.05925139 3.72382467 6.05925139 3.72382467 8 4 C5.14693203 6.32472205 2.45925163 7.7508258 -1 9 C-2.60031344 5.79937313 -1.03173691 3.27728194 0 0 Z " fill="#143143" transform="translate(91,163)"/>
<path d="M0 0 C1.91635217 -0.05423638 3.83314925 -0.09289963 5.75 -0.125 C7.35101563 -0.15980469 7.35101563 -0.15980469 8.984375 -0.1953125 C11.92470106 -0.00487687 13.52361878 0.47329896 16 2 C15 3 15 3 12.05859375 3.09765625 C10.26615234 3.08025391 10.26615234 3.08025391 8.4375 3.0625 C6.64119141 3.04896484 6.64119141 3.04896484 4.80859375 3.03515625 C3.88175781 3.02355469 2.95492187 3.01195312 2 3 C2 2.34 2 1.68 2 1 C1.34 0.67 0.68 0.34 0 0 Z " fill="#446073" transform="translate(38,432)"/>
<path d="M0 0 C0 3 0 3 0 3 Z M-3 2 C-2.01 2.99 -1.02 3.98 0 5 C-0.33 5.99 -0.66 6.98 -1 8 C-3.64 8 -6.28 8 -9 8 C-9 6.68 -9 5.36 -9 4 C-8.01 4.33 -7.02 4.66 -6 5 C-5.01 4.01 -4.02 3.02 -3 2 Z " fill="#08182E" transform="translate(278,423)"/>
<path d="M0 0 C3.96 0 7.92 0 12 0 C12.33 0.99 12.66 1.98 13 3 C8.71 3 4.42 3 0 3 C0 2.01 0 1.02 0 0 Z " fill="#425E74" transform="translate(394,0)"/>
<path d="M0 0 C10.395 0.99 10.395 0.99 21 2 C17.48747192 4.34168539 16.50522085 4.13706169 12.4375 3.6875 C11.46683594 3.58824219 10.49617188 3.48898437 9.49609375 3.38671875 C7 3 7 3 5 2 C4.67 2.99 4.34 3.98 4 5 C3.01 5 2.02 5 1 5 C0.67 3.35 0.34 1.7 0 0 Z " fill="#1C4453" transform="translate(252,282)"/>
<path d="M0 0 C3.96 1.98 7.92 3.96 12 6 C11.67 6.99 11.34 7.98 11 9 C8.4375 10.1875 8.4375 10.1875 6 11 C6 10.34 6 9.68 6 9 C6.66 8.67 7.32 8.34 8 8 C7.01 7.67 6.02 7.34 5 7 C5 6.34 5 5.68 5 5 C4.34 5 3.68 5 3 5 C1.375 3.625 1.375 3.625 0 2 C0 1.34 0 0.68 0 0 Z " fill="#2A5E69" transform="translate(373,210)"/>
<path d="M0 0 C3.62493334 -0.05787784 7.24974857 -0.0935542 10.875 -0.125 C11.90753906 -0.14175781 12.94007813 -0.15851563 14.00390625 -0.17578125 C14.99003906 -0.18222656 15.97617187 -0.18867188 16.9921875 -0.1953125 C18.35899658 -0.21102295 18.35899658 -0.21102295 19.75341797 -0.22705078 C22 0 22 0 24 2 C24 2.66 24 3.32 24 4 C22.35 4 20.7 4 19 4 C18.67 3.34 18.34 2.68 18 2 C12.06 1.67 6.12 1.34 0 1 C0 0.67 0 0.34 0 0 Z " fill="#3C5568" transform="translate(383,431)"/>
<path d="M0 0 C0.94875 0.04125 1.8975 0.0825 2.875 0.125 C2.875 1.115 2.875 2.105 2.875 3.125 C0.54285852 4.33128008 -1.62142139 5.2904738 -4.125 6.125 C-4.125 6.785 -4.125 7.445 -4.125 8.125 C-4.785 8.125 -5.445 8.125 -6.125 8.125 C-5.09178322 0.20367133 -5.09178322 0.20367133 0 0 Z " fill="#0A172F" transform="translate(9.125,93.875)"/>
<path d="M0 0 C0.33 0 0.66 0 1 0 C1 2.31 1 4.62 1 7 C2.32 7 3.64 7 5 7 C4.67 5.35 4.34 3.7 4 2 C4.66 2 5.32 2 6 2 C6.625 4.8125 6.625 4.8125 7 8 C6.01 9.485 6.01 9.485 5 11 C3.35 11 1.7 11 0 11 C0 7.37 0 3.74 0 0 Z " fill="#32495F" transform="translate(429,15)"/>
<path d="M0 0 C2.68392236 2.56723008 3.93433701 3.92495946 4.16796875 7.75 C4.17441406 8.8225 4.18085938 9.895 4.1875 11 C4.20167969 12.0725 4.21585937 13.145 4.23046875 14.25 C4 17 4 17 2 19 C0.53273202 15.18510326 1.56663581 12.70988378 3 9 C2.34 8.67 1.68 8.34 1 8 C0.40644386 5.35139573 0.25790731 2.70802678 0 0 Z " fill="#376570" transform="translate(286,235)"/>
<path d="M0 0 C2 1 2 1 3.0625 3.1875 C4.03990465 6.11971394 4.5734184 8.94283186 5 12 C4.34 12 3.68 12 3 12 C3 15.3 3 18.6 3 22 C2.67 22 2.34 22 2 22 C1.93941406 21.0821875 1.87882812 20.164375 1.81640625 19.21875 C1.37688758 12.781492 0.89469001 6.39064295 0 0 Z " fill="#365D67" transform="translate(311,228)"/>
<path d="M0 0 C0.66 0.33 1.32 0.66 2 1 C1.67 1.33 1.34 1.66 1 2 C1.99 2.66 2.98 3.32 4 4 C-1.17578125 7.22265625 -1.17578125 7.22265625 -3 8 C-3.99 7.67 -4.98 7.34 -6 7 C-4.60667426 3.63279613 -3.0210714 2.0140476 0 0 Z M-2 3 C-2 3.66 -2 4.32 -2 5 C-1.34 5 -0.68 5 0 5 C0 4.34 0 3.68 0 3 C-0.66 3 -1.32 3 -2 3 Z " fill="#234B5A" transform="translate(45,191)"/>
<path d="M0 0 C1.98 0 3.96 0 6 0 C5.67 1.98 5.34 3.96 5 6 C3.35 6 1.7 6 0 6 C0 4.02 0 2.04 0 0 Z " fill="#21354D" transform="translate(19,3)"/>
<path d="M0 0 C1.98 0 3.96 0 6 0 C6 1.65 6 3.3 6 5 C4.02 5 2.04 5 0 5 C0 3.35 0 1.7 0 0 Z " fill="#1F3246" transform="translate(411,426)"/>
<path d="M0 0 C1.98 0 3.96 0 6 0 C6 1.65 6 3.3 6 5 C4.02 5 2.04 5 0 5 C0 3.35 0 1.7 0 0 Z " fill="#3F5867" transform="translate(13,426)"/>
<path d="M0 0 C1.98 0.66 3.96 1.32 6 2 C4.38405168 4.04119788 2.7143618 6.04072937 1 8 C0.34 8 -0.32 8 -1 8 C-1.04241723 5.66705225 -1.04092937 3.33297433 -1 1 C-0.67 0.67 -0.34 0.34 0 0 Z " fill="#08182F" transform="translate(2,87)"/>
<path d="M0 0 C0.33 0 0.66 0 1 0 C1 3.96 1 7.92 1 12 C0.01 11.34 -0.98 10.68 -2 10 C-2.36328125 8.125 -2.36328125 8.125 -2.3125 6 C-2.30669922 4.948125 -2.30669922 4.948125 -2.30078125 3.875 C-2 2 -2 2 0 0 Z " fill="#405C71" transform="translate(438,34)"/>
<path d="M0 0 C3.63 0 7.26 0 11 0 C11.33 0.99 11.66 1.98 12 3 C3.42857143 3.14285714 3.42857143 3.14285714 0 2 C0 1.34 0 0.68 0 0 Z " fill="#466378" transform="translate(33,0)"/>
<path d="M0 0 C0.33 0.66 0.66 1.32 1 2 C-5.23836843 6.03659134 -9.60019424 7.47996115 -17 6 C-17 5.67 -17 5.34 -17 5 C-16.35933594 4.89042969 -15.71867188 4.78085937 -15.05859375 4.66796875 C-9.6438309 3.67539672 -4.96677361 2.37541347 0 0 Z " fill="#2E5360" transform="translate(190,278)"/>
<path d="M0 0 C7.92 3.96 7.92 3.96 16 8 C13 9 13 9 10 9 C8.66666667 7.66666667 7.33333333 6.33333333 6 5 C4.03120677 3.93988057 2.03564133 2.92529151 0 2 C0 1.34 0 0.68 0 0 Z " fill="#275661" transform="translate(356,201)"/>
<path d="M0 0 C1.1446875 0.2475 1.1446875 0.2475 2.3125 0.5 C5.03596236 1.09145396 5.03596236 1.09145396 8 1 C8.66 1.33 9.32 1.66 10 2 C10 2.66 10 3.32 10 4 C11.65 4.33 13.3 4.66 15 5 C14.67 5.99 14.34 6.98 14 8 C9.38 5.69 4.76 3.38 0 1 C0 0.67 0 0.34 0 0 Z " fill="#274F5B" transform="translate(361,180)"/>
<path d="M0 0 C2.77042109 2.77042109 2.39796106 4.76533805 2.625 8.625 C2.69976562 9.81351563 2.77453125 11.00203125 2.8515625 12.2265625 C2.92503906 13.59941406 2.92503906 13.59941406 3 15 C0.03090402 11.72698081 -0.34354794 9.61934238 -0.1875 5.25 C-0.16042969 4.26515625 -0.13335937 3.2803125 -0.10546875 2.265625 C-0.07066406 1.51796875 -0.03585938 0.7703125 0 0 Z " fill="#325F6A" transform="translate(147,239)"/>
<path d="M0 0 C6 0.66666667 12 1.33333333 18 2 C18 2.33 18 2.66 18 3 C16.329375 3.2165625 16.329375 3.2165625 14.625 3.4375 C11.17857953 3.78372035 11.17857953 3.78372035 9 5 C8.67 4.34 8.34 3.68 8 3 C6.33678518 2.64984951 4.66965451 2.31802943 3 2 C2.01 1.34 1.02 0.68 0 0 Z " fill="#244A58" transform="translate(149,282)"/>
<path d="M0 0 C1.98 0 3.96 0 6 0 C6.33 1.32 6.66 2.64 7 4 C4.69 4 2.38 4 0 4 C0 2.68 0 1.36 0 0 Z " fill="#436072" transform="translate(417,4)"/>
<path d="M0 0 C1.65 0 3.3 0 5 0 C5 1.65 5 3.3 5 5 C3.35 5 1.7 5 0 5 C0 3.35 0 1.7 0 0 Z " fill="#486173" transform="translate(424,420)"/>
<path d="M0 0 C1.65 0 3.3 0 5 0 C5 1.65 5 3.3 5 5 C3.35 5 1.7 5 0 5 C0 3.35 0 1.7 0 0 Z " fill="#485F72" transform="translate(7,420)"/>
<path d="M0 0 C1.65 0 3.3 0 5 0 C5 1.65 5 3.3 5 5 C3.35 5 1.7 5 0 5 C0 3.35 0 1.7 0 0 Z " fill="#1F3347" transform="translate(412,3)"/>
<path d="M0 0 C1.98 0 3.96 0 6 0 C6 1.32 6 2.64 6 4 C4.02 4 2.04 4 0 4 C0 2.68 0 1.36 0 0 Z " fill="#41586B" transform="translate(417,426)"/>
<path d="M0 0 C1.32 0 2.64 0 4 0 C4 1.98 4 3.96 4 6 C2.68 6 1.36 6 0 6 C0 4.02 0 2.04 0 0 Z " fill="#455F71" transform="translate(2,413)"/>
<path d="M0 0 C0.66 0.66 1.32 1.32 2 2 C1.1875 4.4375 1.1875 4.4375 0 7 C-0.99 7.33 -1.98 7.66 -3 8 C-2.67 6.35 -2.34 4.7 -2 3 C-1.34 3 -0.68 3 0 3 C0 2.01 0 1.02 0 0 Z M-7 9 C-5.68 9.33 -4.36 9.66 -3 10 C-3.99 10.495 -3.99 10.495 -5 11 C-5.66 10.34 -6.32 9.68 -7 9 Z " fill="#0B1A31" transform="translate(349,369)"/>
<path d="M0 0 C0.66 0 1.32 0 2 0 C1 3 1 3 -0.671875 3.94921875 C-4.56333025 5.33170943 -7.80183483 6.39357798 -12 6 C-11.67 5.34 -11.34 4.68 -11 4 C-9.00390625 3.4375 -9.00390625 3.4375 -6.5625 3 C-2.86159602 2.37748838 -2.86159602 2.37748838 0 0 Z " fill="#234955" transform="translate(266,146)"/>
<path d="M0 0 C2.125 0.375 2.125 0.375 4 1 C3.34 2.65 2.68 4.3 2 6 C1.01 5.67 0.02 5.34 -1 5 C-1.33 4.01 -1.66 3.02 -2 2 C-1.34 1.34 -0.68 0.68 0 0 Z " fill="#0A182F" transform="translate(262,76)"/>
<path d="M0 0 C0.99 0.33 1.98 0.66 3 1 C3.33 2.98 3.66 4.96 4 7 C2.68 7 1.36 7 0 7 C0 4.69 0 2.38 0 0 Z " fill="#476278" transform="translate(430,15)"/>
<path d="M0 0 C3 2 3 2 3.5625 4.25 C3.706875 5.1575 3.85125 6.065 4 7 C4.64389782 9.00744615 5.30562253 11.00945124 6 13 C2.9219997 10.22979973 1.19517992 7.98393307 0 4 C0 2.68 0 1.36 0 0 Z " fill="#2B5662" transform="translate(249,245)"/>
<path d="M0 0 C0.99 0 1.98 0 3 0 C3 1.98 3 3.96 3 6 C1.68 6 0.36 6 -1 6 C-1.042721 4.33388095 -1.04063832 2.66617115 -1 1 C-0.67 0.67 -0.34 0.34 0 0 Z " fill="#496374" transform="translate(3,15)"/>
<path d="M0 0 C0 1.65 0 3.3 0 5 C-1.65 5 -3.3 5 -5 5 C-5 3.68 -5 2.36 -5 1 C-3 0 -3 0 0 0 Z " fill="#4B6678" transform="translate(12,9)"/>
<path d="M0 0 C2.64 0 5.28 0 8 0 C8.33 0.99 8.66 1.98 9 3 C6.36 3 3.72 3 1 3 C0.67 2.01 0.34 1.02 0 0 Z " fill="#364C5D" transform="translate(406,0)"/>
<path d="M0 0 C2.64 0 5.28 0 8 0 C7.67 1.32 7.34 2.64 7 4 C5.35 4 3.7 4 2 4 C2 3.34 2 2.68 2 2 C1.34 1.34 0.68 0.68 0 0 Z " fill="#2C404F" transform="translate(22,431)"/>
<path d="M0 0 C0.33 0.66 0.66 1.32 1 2 C3.02463255 2.65213292 3.02463255 2.65213292 5 3 C5.33 4.32 5.66 5.64 6 7 C4.68 7.33 3.36 7.66 2 8 C2 6.68 2 5.36 2 4 C1.34 4 0.68 4 0 4 C0 2.68 0 1.36 0 0 Z " fill="#132A40" transform="translate(334,146)"/>
<path d="M0 0 C1.98 0.99 1.98 0.99 4 2 C3.01 4.31 2.02 6.62 1 9 C0.67 9 0.34 9 0 9 C0 6.03 0 3.06 0 0 Z " fill="#04162D" transform="translate(1,65)"/>
<path d="M0 0 C-1.32 0.33 -2.64 0.66 -4 1 C-4 1.99 -4 2.98 -4 4 C-4.99 3.67 -5.98 3.34 -7 3 C-7.99 3.495 -7.99 3.495 -9 4 C-11.125 3.0625 -11.125 3.0625 -13 2 C-11.21089097 1.47044766 -9.41860852 0.9516063 -7.625 0.4375 C-6.62726563 0.14746094 -5.62953125 -0.14257812 -4.6015625 -0.44140625 C-2 -1 -2 -1 0 0 Z " fill="#294E5C" transform="translate(293,281)"/>
<path d="M0 0 C0.61875 0.33 1.2375 0.66 1.875 1 C3.91018344 2.14193235 3.91018344 2.14193235 6 2 C6 2.99 6 3.98 6 5 C6.99 5.33 7.98 5.66 9 6 C8.01 6.495 8.01 6.495 7 7 C4.8359375 6.00390625 4.8359375 6.00390625 2.375 4.5625 C1.55773438 4.08941406 0.74046875 3.61632812 -0.1015625 3.12890625 C-0.72804687 2.75636719 -1.35453125 2.38382813 -2 2 C-1.34 1.34 -0.68 0.68 0 0 Z " fill="#2C5E68" transform="translate(62,221)"/>
<path d="M0 0 C0.66 0 1.32 0 2 0 C2 1.32 2 2.64 2 4 C2.66 4 3.32 4 4 4 C4 4.66 4 5.32 4 6 C2.35 6 0.7 6 -1 6 C-1.042721 4.33388095 -1.04063832 2.66617115 -1 1 C-0.67 0.67 -0.34 0.34 0 0 Z " fill="#08182D" transform="translate(409,4)"/>
<path d="M0 0 C1.32 0 2.64 0 4 0 C4 1.65 4 3.3 4 5 C2.68 5 1.36 5 0 5 C0 3.35 0 1.7 0 0 Z " fill="#4C677A" transform="translate(430,414)"/>
<path d="M0 0 C0.66 0.33 1.32 0.66 2 1 C-0.97 3.475 -0.97 3.475 -4 6 C-5.32 5.34 -6.64 4.68 -8 4 C-6.71349294 3.30289269 -5.42059335 2.61757124 -4.125 1.9375 C-3.40570313 1.55464844 -2.68640625 1.17179688 -1.9453125 0.77734375 C-1.30335938 0.52082031 -0.66140625 0.26429688 0 0 Z " fill="#2C5562" transform="translate(382,242)"/>
<path d="M0 0 C-0.75 6.625 -0.75 6.625 -3 10 C-3 7.03 -3 4.06 -3 1 C-1 0 -1 0 0 0 Z " fill="#081D32" transform="translate(4,182)"/>
<path d="M0 0 C1.65 0 3.3 0 5 0 C5 1.32 5 2.64 5 4 C3.35 4 1.7 4 0 4 C0 2.68 0 1.36 0 0 Z " fill="#4C687B" transform="translate(13,4)"/>
<path d="M0 0 C-0.33 0.99 -0.66 1.98 -1 3 C-3.31 3 -5.62 3 -8 3 C-8 2.34 -8 1.68 -8 1 C-5.29120665 -0.35439668 -2.99066732 -0.06501451 0 0 Z " fill="#455F72" transform="translate(403,432)"/>
<path d="M0 0 C1.65 0.33 3.3 0.66 5 1 C5 1.99 5 2.98 5 4 C3.02 4 1.04 4 -1 4 C-0.67 2.68 -0.34 1.36 0 0 Z " fill="#07172E" transform="translate(247,427)"/>
<path d="M0 0 C0.66 0.66 1.32 1.32 2 2 C1.34 3.32 0.68 4.64 0 6 C-1.65 6 -3.3 6 -5 6 C-3.35 4.02 -1.7 2.04 0 0 Z " fill="#07182F" transform="translate(326,425)"/>
<path d="M0 0 C0.33 0 0.66 0 1 0 C1 1.65 1 3.3 1 5 C2.32 5.33 3.64 5.66 5 6 C3.68 6 2.36 6 1 6 C0.67 6.99 0.34 7.98 0 9 C0 8.01 0 7.02 0 6 C-1.98 6 -3.96 6 -6 6 C-6 5.67 -6 5.34 -6 5 C-4.02 5 -2.04 5 0 5 C0 3.35 0 1.7 0 0 Z " fill="#304557" transform="translate(423,420)"/>
<path d="M0 0 C0.66 0 1.32 0 2 0 C2.1875 2.875 2.1875 2.875 2 6 C1.01 6.66 0.02 7.32 -1 8 C-1.125 2.25 -1.125 2.25 0 0 Z " fill="#364D5B" transform="translate(437,400)"/>
<path d="M0 0 C1.32 0.33 2.64 0.66 4 1 C3.34 2.65 2.68 4.3 2 6 C0.68 5.34 -0.64 4.68 -2 4 C-1.34 2.68 -0.68 1.36 0 0 Z " fill="#08182D" transform="translate(116,337)"/>
<path d="M0 0 C1.98 0 3.96 0 6 0 C2.8745041 2.64465038 -0.08788267 3.84414715 -4 5 C-3.67 4.01 -3.34 3.02 -3 2 C-2.34 2.33 -1.68 2.66 -1 3 C-0.67 2.01 -0.34 1.02 0 0 Z " fill="#254E5B" transform="translate(53,189)"/>
<path d="M0 0 C1.65 0 3.3 0 5 0 C5.33 0.66 5.66 1.32 6 2 C2.535 3.485 2.535 3.485 -1 5 C-0.67 3.35 -0.34 1.7 0 0 Z " fill="#1A3946" transform="translate(93,166)"/>
<path d="M0 0 C0.66 0.33 1.32 0.66 2 1 C2.66 1 3.32 1 4 1 C4.66 1 5.32 1 6 1 C5.34 2.32 4.68 3.64 4 5 C2.35 4.67 0.7 4.34 -1 4 C-0.67 2.68 -0.34 1.36 0 0 Z " fill="#08162D" transform="translate(387,126)"/>
<path d="M0 0 C1.65 1.32 3.3 2.64 5 4 C2.36 4 -0.28 4 -3 4 C-2.67 3.01 -2.34 2.02 -2 1 C-1.34 0.67 -0.68 0.34 0 0 Z " fill="#081930" transform="translate(305,427)"/>
<path d="M0 0 C0.66 0.33 1.32 0.66 2 1 C0.68 2.65 -0.64 4.3 -2 6 C-3.32 5.67 -4.64 5.34 -6 5 C-6 4.34 -6 3.68 -6 3 C-4.03533587 1.93224776 -2.03144641 0.93446535 0 0 Z " fill="#316068" transform="translate(56,213)"/>
<path d="M0 0 C0 1.65 0 3.3 0 5 C-1.32 5.33 -2.64 5.66 -4 6 C-3.625 3.5625 -3.625 3.5625 -3 1 C-1 0 -1 0 0 0 Z " fill="#08162D" transform="translate(119,28)"/>
<path d="M0 0 C1.65 0 3.3 0 5 0 C4.01 0.66 3.02 1.32 2 2 C2 3.32 2 4.64 2 6 C1.01 5.67 0.02 5.34 -1 5 C-0.67 3.35 -0.34 1.7 0 0 Z " fill="#0A1B31" transform="translate(126,3)"/>
<path d="M0 0 C2.475 0.495 2.475 0.495 5 1 C4.67 1.99 4.34 2.98 4 4 C3.01 4.33 2.02 4.66 1 5 C0.67 3.35 0.34 1.7 0 0 Z " fill="#09192E" transform="translate(50,283)"/>
</svg>
